<svg xmlns="http://www.w3.org/2000/svg" viewBox="0 0 2664.00 862.00">
  <g transform="translate(1332, 431) scale(1, -1) translate(-1346, -355)">
    <path d="M74 710L277 710L458 193L638 710L841 710L841 0L689 0L689 460L522 2L392 2L226 460L226 0L74 0Z M967 710L1119 710L1119 0L967 0Z M1218 710L1375 710L1564 171L1752 710L1910 710L1652 0L1474 0Z M2272 -16Q2165 -16 2087 28.5Q2009 73 1968 156.5Q1927 240 1927 354Q1927 468 1968.5 552Q2010 636 2087.5 681Q2165 726 2272 726Q2379 726 2457 681Q2535 636 2576.5 552Q2618 468 2618 354Q2618 240 2576.5 156.5Q2535 73 2457 28.5Q2379 -16 2272 -16ZM2272 112Q2362 112 2412 175.5Q2462 239 2462 354Q2462 469 2411.5 533.5Q2361 598 2272 598Q2183 598 2133 533.5Q2083 469 2083 354Q2083 239 2133 175.5Q2183 112 2272 112Z " fill="#000000"/>
  </g>
</svg>